<?xml version="1.0" encoding="UTF-8" standalone="no"?>
<!-- Created with Inkscape (http://www.inkscape.org/) -->

<svg
   width="42.746574mm"
   height="10.484804mm"
   viewBox="0 0 42.746574 10.484804"
   version="1.1"
   id="svg5"
   inkscape:version="1.1.1 (3bf5ae0d25, 2021-09-20)"
   sodipodi:docname="logo-h-v.svg"
   xmlns:inkscape="http://www.inkscape.org/namespaces/inkscape"
   xmlns:sodipodi="http://sodipodi.sourceforge.net/DTD/sodipodi-0.dtd"
   xmlns="http://www.w3.org/2000/svg"
   xmlns:svg="http://www.w3.org/2000/svg">
  <sodipodi:namedview
     id="namedview7"
     pagecolor="#505050"
     bordercolor="#ffffff"
     borderopacity="1"
     inkscape:pageshadow="0"
     inkscape:pageopacity="0"
     inkscape:pagecheckerboard="1"
     inkscape:document-units="mm"
     showgrid="false"
     inkscape:zoom="22.86285"
     inkscape:cx="130.58302"
     inkscape:cy="21.191584"
     inkscape:window-width="3200"
     inkscape:window-height="1711"
     inkscape:window-x="-9"
     inkscape:window-y="-9"
     inkscape:window-maximized="1"
     inkscape:current-layer="layer1"
     fit-margin-top="0"
     fit-margin-left="0"
     fit-margin-right="0"
     fit-margin-bottom="0" />
  <defs
     id="defs2" />
  <g
     inkscape:label="Layer 1"
     inkscape:groupmode="layer"
     id="layer1"
     transform="translate(-32.472887,-38.374844)">
    <g
       aria-label="ICB"
       id="text693"
       style="font-size:12.7px;line-height:1.25;stroke-width:0.264583">
      <path
         d="M 32.472887,47.792435 V 46.70723 l 0.961182,-0.186036 V 40.04097 l -0.961182,-0.186035 v -1.091406 h 3.733106 v 1.091406 l -0.961182,0.186035 v 6.480224 l 0.961182,0.186036 v 1.085205 z"
         style="fill:#ffffff"
         id="path245" />
      <path
         d="m 41.197936,47.922659 q -1.314648,0 -2.288232,-0.545703 -0.973584,-0.551904 -1.506885,-1.556494 -0.5271,-1.010791 -0.5271,-2.387451 v -0.303857 q 0,-1.314649 0.508496,-2.32544 0.514698,-1.016992 1.463477,-1.593701 0.948779,-0.576709 2.257227,-0.576709 0.917773,0 1.717724,0.260449 0.806152,0.260449 1.438672,0.79375 v 2.182813 h -1.345654 l -0.186035,-1.370459 q -0.204639,-0.148828 -0.446485,-0.254248 -0.241846,-0.10542 -0.527099,-0.161231 -0.279053,-0.05581 -0.607715,-0.05581 -0.768946,0 -1.32085,0.378271 -0.551904,0.378272 -0.84956,1.072803 -0.291455,0.68833 -0.291455,1.637109 v 0.31626 q 0,0.948779 0.310058,1.64331 0.310059,0.694532 0.880566,1.079004 0.570508,0.378272 1.351856,0.378272 0.390674,0 0.781348,-0.08682 0.396875,-0.09302 0.719336,-0.235644 l 0.186035,-1.27124 h 1.345654 v 2.158007 q -0.5271,0.347266 -1.314648,0.589112 -0.787549,0.235644 -1.748731,0.235644 z"
         style="fill:#ffffff"
         id="path247" />
      <path
         d="M 45.092272,47.792435 V 46.70723 l 0.961182,-0.186036 V 40.04097 l -0.961182,-0.186035 v -1.091406 h 0.961182 3.050976 q 1.593701,0 2.48667,0.620117 0.892969,0.620117 0.892969,1.85415 0,0.626318 -0.334863,1.122412 -0.328662,0.489893 -0.961182,0.73794 0.539502,0.117822 0.89917,0.415478 0.365869,0.297656 0.545703,0.725537 0.179834,0.42168 0.179834,0.923975 0,1.296045 -0.855762,1.965771 -0.855761,0.663526 -2.424658,0.663526 z m 2.771924,-1.389063 h 1.668115 q 0.719336,0 1.097608,-0.310058 0.378271,-0.31626 0.378271,-0.930176 0,-0.446485 -0.142627,-0.750342 Q 50.722936,44.108939 50.42528,43.953909 50.133825,43.79888 49.668737,43.79888 h -1.804541 z m 0,-3.857129 h 1.302246 q 0.725537,0 1.116211,-0.297656 0.390674,-0.297656 0.390674,-0.868164 0,-0.626318 -0.396875,-0.923975 -0.390674,-0.297656 -1.172022,-0.297656 h -1.240234 z"
         style="fill:#ffffff"
         id="path249" />
    </g>
    <path
       d="m 58.170386,40.797585 v -0.173633 l 0.22462,-0.03859 v -1.580609 l -0.22462,-0.03859 V 38.791162 H 58.8911 v 0.175011 l -0.22462,0.03859 v 1.580609 l 0.22462,0.03859 v 0.173633 z"
       style="fill:#ffffff;stroke-width:0.264583"
       id="path182" />
    <path
       d="m 59.104696,40.797585 v -0.173633 l 0.22462,-0.03859 v -1.065223 l -0.22462,-0.03859 v -0.175011 h 0.467154 l 0.01929,0.221864 q 0.07441,-0.118511 0.186035,-0.183279 0.112999,-0.06614 0.256315,-0.06614 0.241156,0 0.373448,0.141937 0.132291,0.14056 0.132291,0.43546 v 0.728982 l 0.22462,0.03859 v 0.173633 h -0.720713 v -0.173633 l 0.22462,-0.03859 v -0.72347 q 0,-0.197059 -0.07855,-0.279741 -0.07717,-0.08268 -0.237023,-0.08268 -0.117133,0 -0.208083,0.0565 -0.08957,0.0565 -0.143316,0.15434 v 0.875054 l 0.22462,0.03859 v 0.173633 z"
       style="fill:#ffffff;stroke-width:0.264583"
       id="path184" />
    <path
       d="m 61.55898,40.826523 q -0.150206,0 -0.28112,-0.03032 -0.130914,-0.03032 -0.278364,-0.09371 l -0.0028,-0.354156 h 0.205328 l 0.05099,0.213596 q 0.07717,0.03169 0.148828,0.04685 0.07304,0.01378 0.157097,0.01378 0.165364,0 0.237022,-0.06339 0.07166,-0.06339 0.07166,-0.157096 0,-0.08819 -0.07304,-0.148828 -0.07166,-0.06201 -0.261827,-0.104731 -0.270095,-0.06201 -0.398253,-0.165364 -0.126779,-0.104731 -0.126779,-0.278364 0,-0.121267 0.07028,-0.216352 0.07028,-0.09646 0.195681,-0.152962 0.125401,-0.0565 0.292144,-0.0565 0.169498,0 0.289388,0.03859 0.121267,0.03858 0.210839,0.103352 l 0.01378,0.340376 h -0.20395 l -0.0441,-0.198438 q -0.04823,-0.03583 -0.114377,-0.05512 -0.06615,-0.01929 -0.151584,-0.01929 -0.12678,0 -0.206706,0.05926 -0.07855,0.05926 -0.07855,0.148828 0,0.05236 0.02205,0.09095 0.02343,0.03858 0.08819,0.07028 0.06477,0.03032 0.190169,0.06063 0.311437,0.07304 0.434082,0.186035 0.124023,0.112999 0.124023,0.278363 0,0.188791 -0.14056,0.316949 -0.139181,0.126779 -0.439593,0.126779 z"
       style="fill:#ffffff;stroke-width:0.264583"
       id="path186" />
    <path
       d="m 62.890164,40.821011 q -0.165365,0 -0.263205,-0.09646 -0.09646,-0.09784 -0.09646,-0.311437 v -0.90537 H 62.294855 V 39.30655 h 0.235644 v -0.359667 h 0.271473 v 0.359667 h 0.323839 v 0.201194 h -0.323839 v 0.90537 q 0,0.107487 0.04272,0.158474 0.04272,0.05099 0.114377,0.05099 0.04823,0 0.107487,-0.0083 0.05926,-0.0096 0.09233,-0.01654 l 0.03721,0.177767 q -0.05926,0.01791 -0.146072,0.03169 -0.08544,0.01378 -0.159852,0.01378 z"
       style="fill:#ffffff;stroke-width:0.264583"
       id="path188" />
    <path
       d="m 63.360074,40.797585 v -0.173633 l 0.224621,-0.03859 v -1.065223 l -0.224621,-0.03859 v -0.175011 h 0.496094 v 1.278819 l 0.22462,0.03859 v 0.173633 z m 0.21084,-1.858973 v -0.290765 h 0.285254 v 0.290765 z"
       style="fill:#ffffff;stroke-width:0.264583"
       id="path190" />
    <path
       d="m 64.794611,40.821011 q -0.165365,0 -0.263205,-0.09646 -0.09646,-0.09784 -0.09646,-0.311437 v -0.90537 H 64.199302 V 39.30655 h 0.235644 v -0.359667 h 0.271473 v 0.359667 h 0.323839 v 0.201194 h -0.323839 v 0.90537 q 0,0.107487 0.04272,0.158474 0.04272,0.05099 0.114377,0.05099 0.04823,0 0.107487,-0.0083 0.05925,-0.0096 0.09233,-0.01654 l 0.03721,0.177767 q -0.05925,0.01791 -0.146072,0.03169 -0.08544,0.01378 -0.159852,0.01378 z"
       style="fill:#ffffff;stroke-width:0.264583"
       id="path192" />
    <path
       d="m 65.930113,40.826523 q -0.242534,0 -0.37896,-0.155718 -0.136425,-0.155718 -0.136425,-0.485069 v -0.665592 l -0.170877,-0.03859 v -0.175011 h 0.170877 0.271473 v 0.881944 q 0,0.238401 0.07028,0.327973 0.07028,0.08957 0.219108,0.08957 0.144694,0 0.2384,-0.05788 0.09508,-0.05926 0.143316,-0.166743 v -0.861273 l -0.199815,-0.03859 v -0.175011 h 0.199815 0.271473 v 1.278819 l 0.170877,0.03859 v 0.173633 h -0.414789 l -0.01792,-0.220486 q -0.07028,0.119889 -0.181901,0.184657 -0.110243,0.06477 -0.254937,0.06477 z"
       style="fill:#ffffff;stroke-width:0.264583"
       id="path194" />
    <path
       d="m 67.516235,40.821011 q -0.165365,0 -0.263205,-0.09646 -0.09646,-0.09784 -0.09646,-0.311437 v -0.90537 H 66.920926 V 39.30655 h 0.235644 v -0.359667 h 0.271473 v 0.359667 h 0.323839 v 0.201194 H 67.42804 v 0.90537 q 0,0.107487 0.04272,0.158474 0.04272,0.05099 0.114377,0.05099 0.04823,0 0.107487,-0.0083 0.05926,-0.0096 0.09233,-0.01654 l 0.03721,0.177767 q -0.05926,0.01791 -0.146072,0.03169 -0.08544,0.01378 -0.159852,0.01378 z"
       style="fill:#ffffff;stroke-width:0.264583"
       id="path196" />
    <path
       d="m 68.642091,40.826523 q -0.206706,0 -0.356912,-0.09646 -0.148828,-0.09784 -0.230132,-0.268718 -0.0813,-0.172254 -0.0813,-0.39274 v -0.03032 q 0,-0.220486 0.0813,-0.391362 0.0813,-0.172255 0.230132,-0.270096 0.150206,-0.09784 0.354156,-0.09784 0.206705,0 0.355533,0.09784 0.150206,0.09784 0.23151,0.268717 0.08131,0.170877 0.08131,0.392741 v 0.03032 q 0,0.221864 -0.08131,0.394119 -0.0813,0.170876 -0.230132,0.267339 -0.148828,0.09646 -0.354155,0.09646 z m 0,-0.212217 q 0.129535,0 0.216352,-0.07028 0.08819,-0.07166 0.132291,-0.194304 0.04547,-0.124023 0.04547,-0.281119 v -0.03032 q 0,-0.157096 -0.04547,-0.279741 -0.0441,-0.124024 -0.132291,-0.194304 -0.08819,-0.07166 -0.219108,-0.07166 -0.129536,0 -0.21773,0.07166 -0.08819,0.07028 -0.132292,0.194304 -0.0441,0.122645 -0.0441,0.279741 v 0.03032 q 0,0.157096 0.0441,0.281119 0.0441,0.122646 0.132292,0.194304 0.08957,0.07028 0.220486,0.07028 z"
       style="fill:#ffffff;stroke-width:0.264583"
       id="path198" />
    <path
       d="m 70.804231,40.826523 q -0.181901,0 -0.312814,-0.08957 -0.129536,-0.09095 -0.198438,-0.252181 -0.0689,-0.16123 -0.0689,-0.376204 v -0.02894 q 0,-0.239778 0.0689,-0.420301 0.0689,-0.180523 0.199816,-0.279742 0.130913,-0.100596 0.314192,-0.100596 0.132292,0 0.232888,0.04961 0.101975,0.04823 0.173633,0.14056 v -0.607715 l -0.22462,-0.03858 v -0.17501 h 0.22462 0.271473 v 1.93752 l 0.22462,0.03859 v 0.173633 h -0.460264 l -0.02205,-0.177767 q -0.07304,0.101974 -0.179144,0.15434 -0.104731,0.05237 -0.243913,0.05237 z m 0.0689,-0.220486 q 0.121267,0 0.203949,-0.05512 0.08268,-0.05512 0.136426,-0.155718 v -0.691775 q -0.05237,-0.09371 -0.136426,-0.148828 -0.08406,-0.05512 -0.201193,-0.05512 -0.129536,0 -0.213596,0.07441 -0.08406,0.07304 -0.125401,0.203949 -0.04134,0.129536 -0.04134,0.30179 v 0.02894 q 0,0.22462 0.09233,0.361046 0.09233,0.136425 0.285254,0.136425 z"
       style="fill:#ffffff;stroke-width:0.264583"
       id="path200" />
    <path
       d="m 72.569497,40.826523 q -0.206706,0 -0.359668,-0.09371 -0.152962,-0.09508 -0.237022,-0.263205 -0.08268,-0.168121 -0.08268,-0.388607 v -0.06063 q 0,-0.212218 0.08682,-0.378961 0.08819,-0.16812 0.232888,-0.264583 0.146072,-0.09784 0.318327,-0.09784 0.201193,0 0.336241,0.08268 0.136426,0.08268 0.205327,0.232888 0.0689,0.148828 0.0689,0.3514 v 0.169498 h -0.967382 l -0.0041,0.0069 q 0.0028,0.143316 0.04961,0.254937 0.04823,0.110243 0.137804,0.173633 0.08957,0.06339 0.214974,0.06339 0.137804,0 0.241156,-0.03858 0.104731,-0.03996 0.180523,-0.108865 l 0.106109,0.176388 q -0.07993,0.07717 -0.212218,0.130914 -0.130913,0.05237 -0.31557,0.05237 z m -0.389985,-0.923285 h 0.687641 v -0.03583 q 0,-0.107486 -0.03858,-0.191547 -0.03721,-0.08544 -0.112999,-0.133669 -0.07441,-0.04961 -0.187413,-0.04961 -0.09095,0 -0.165365,0.05374 -0.07441,0.05237 -0.122645,0.143316 -0.04823,0.09095 -0.06339,0.206705 z"
       style="fill:#ffffff;stroke-width:0.264583"
       id="path202" />
    <path
       d="m 59.077135,44.374591 q -0.30179,0 -0.504362,-0.132292 -0.201193,-0.132291 -0.303168,-0.362423 -0.100597,-0.230133 -0.100597,-0.522277 v -0.02894 q 0,-0.2949 0.106109,-0.523654 0.106109,-0.230133 0.304546,-0.362424 0.198438,-0.132292 0.474045,-0.132292 0.194303,0 0.355534,0.06063 0.16123,0.06063 0.267339,0.15434 v 0.432704 H 59.460229 L 59.43129,42.64102 q -0.0441,-0.03445 -0.101974,-0.05788 -0.0565,-0.02343 -0.12678,-0.03583 -0.0689,-0.0124 -0.150206,-0.0124 -0.197059,0 -0.333485,0.101975 -0.136425,0.100597 -0.206705,0.278363 -0.07028,0.177767 -0.07028,0.410656 v 0.03169 q 0,0.252181 0.07441,0.431326 0.07579,0.177767 0.219108,0.271473 0.144694,0.09371 0.351399,0.09371 0.09646,0 0.188791,-0.02343 0.09233,-0.02343 0.152962,-0.06063 l 0.03032,-0.279742 h 0.212218 v 0.43546 q -0.112999,0.07028 -0.270095,0.110243 -0.157097,0.03859 -0.323839,0.03859 z"
       style="fill:#ffffff;stroke-width:0.264583"
       id="path204" />
    <path
       d="m 60.420721,44.374591 q -0.232888,0 -0.354156,-0.112999 -0.121267,-0.114377 -0.121267,-0.321083 0,-0.141938 0.07717,-0.246669 0.07855,-0.106108 0.225998,-0.163986 0.14745,-0.05926 0.352778,-0.05926 h 0.265961 v -0.146071 q 0,-0.135048 -0.08268,-0.209462 -0.0813,-0.07441 -0.230132,-0.07441 -0.09371,0 -0.162609,0.02343 -0.0689,0.02205 -0.125401,0.06201 l -0.02894,0.208084 H 60.02798 V 42.99242 q 0.100597,-0.08131 0.234267,-0.122646 0.133669,-0.04272 0.296278,-0.04272 0.271473,0 0.425813,0.129536 0.15434,0.129535 0.15434,0.370692 v 0.717957 q 0,0.02894 0,0.0565 0.0014,0.02756 0.0041,0.05512 l 0.144693,0.01516 v 0.173633 h -0.389984 q -0.0124,-0.06063 -0.01929,-0.108865 -0.0069,-0.04823 -0.0096,-0.09646 -0.07855,0.100596 -0.197059,0.16812 -0.117133,0.06615 -0.250803,0.06615 z m 0.03996,-0.227376 q 0.135048,0 0.246669,-0.06477 0.111621,-0.06477 0.159852,-0.155718 v -0.270096 h -0.275607 q -0.187413,0 -0.28112,0.08957 -0.09371,0.08957 -0.09371,0.199815 0,0.09784 0.06063,0.150206 0.06063,0.05099 0.183279,0.05099 z"
       style="fill:#ffffff;stroke-width:0.264583"
       id="path206" />
    <path
       d="m 61.457005,44.918916 v -0.175011 l 0.21084,-0.03858 v -1.637108 l -0.22462,-0.03859 v -0.175011 h 0.457508 l 0.02481,0.181901 q 0.07441,-0.101975 0.180522,-0.155718 0.107487,-0.05374 0.248047,-0.05374 0.184657,0 0.315571,0.100597 0.130913,0.09922 0.199815,0.279741 0.0689,0.179145 0.0689,0.420302 v 0.02894 q 0,0.214974 -0.07028,0.376205 -0.0689,0.16123 -0.198437,0.25218 -0.129536,0.08957 -0.311437,0.08957 -0.137803,0 -0.242534,-0.04548 -0.103353,-0.04685 -0.176389,-0.137804 v 0.514008 l 0.237022,0.03858 v 0.175011 z m 0.817176,-0.756543 q 0.192925,0 0.292144,-0.14056 0.09922,-0.140559 0.09922,-0.36518 v -0.02894 q 0,-0.170877 -0.0441,-0.300412 -0.0441,-0.130914 -0.132291,-0.205328 -0.08682,-0.07441 -0.21773,-0.07441 -0.115755,0 -0.198437,0.05236 -0.08268,0.05237 -0.13367,0.143316 v 0.726226 q 0.05099,0.09233 0.132292,0.143316 0.08268,0.04961 0.202571,0.04961 z"
       style="fill:#ffffff;stroke-width:0.264583"
       id="path208" />
    <path
       d="m 63.63017,44.374591 q -0.232889,0 -0.354156,-0.112999 -0.121267,-0.114377 -0.121267,-0.321083 0,-0.141938 0.07717,-0.246669 0.07855,-0.106108 0.225998,-0.163986 0.14745,-0.05926 0.352777,-0.05926 h 0.265962 v -0.146071 q 0,-0.135048 -0.08268,-0.209462 -0.0813,-0.07441 -0.230132,-0.07441 -0.09371,0 -0.162608,0.02343 -0.0689,0.02205 -0.125402,0.06201 l -0.02894,0.208084 H 63.237429 V 42.99242 q 0.100597,-0.08131 0.234266,-0.122646 0.13367,-0.04272 0.296278,-0.04272 0.271474,0 0.425814,0.129536 0.15434,0.129535 0.15434,0.370692 v 0.717957 q 0,0.02894 0,0.0565 0.0014,0.02756 0.0041,0.05512 l 0.144694,0.01516 v 0.173633 H 64.10697 q -0.0124,-0.06063 -0.01929,-0.108865 -0.0069,-0.04823 -0.0096,-0.09646 -0.07855,0.100596 -0.19706,0.16812 -0.117133,0.06615 -0.250802,0.06615 z m 0.03996,-0.227376 q 0.135047,0 0.246668,-0.06477 0.111621,-0.06477 0.159853,-0.155718 v -0.270096 h -0.275608 q -0.187413,0 -0.281119,0.08957 -0.09371,0.08957 -0.09371,0.199815 0,0.09784 0.06063,0.150206 0.06063,0.05099 0.183279,0.05099 z"
       style="fill:#ffffff;stroke-width:0.264583"
       id="path210" />
    <path
       d="m 65.381655,44.374591 q -0.202572,0 -0.352778,-0.09371 -0.150206,-0.09508 -0.232888,-0.263205 -0.08268,-0.16812 -0.08268,-0.388606 v -0.05788 q 0,-0.212218 0.07993,-0.380338 0.07993,-0.168121 0.230132,-0.265961 0.150206,-0.09784 0.35829,-0.09784 0.180522,0 0.31557,0.05926 0.136426,0.05926 0.228754,0.162608 l 0.0069,0.35829 h -0.212217 l -0.04685,-0.260449 q -0.04685,-0.04823 -0.117133,-0.07717 -0.07028,-0.02894 -0.165364,-0.02894 -0.121267,0 -0.213596,0.07166 -0.09095,0.07166 -0.141938,0.191547 -0.05099,0.119889 -0.05099,0.267339 v 0.05788 q 0,0.162608 0.04685,0.282497 0.04823,0.11989 0.136426,0.186035 0.08957,0.06477 0.212218,0.06477 0.137803,0 0.228754,-0.07579 0.09095,-0.07579 0.111621,-0.208084 h 0.243912 l 0.0028,0.0083 q -0.0069,0.128157 -0.07579,0.239778 -0.0689,0.111621 -0.197059,0.180523 -0.126779,0.06752 -0.312814,0.06752 z"
       style="fill:#ffffff;stroke-width:0.264583"
       id="path212" />
    <path
       d="m 66.168514,44.345652 v -0.173633 l 0.22462,-0.03858 v -1.065222 l -0.22462,-0.03859 v -0.175011 h 0.496093 v 1.278818 l 0.22462,0.03858 v 0.173633 z m 0.210839,-1.858972 v -0.290766 h 0.285254 v 0.290766 z"
       style="fill:#ffffff;stroke-width:0.264583"
       id="path214" />
    <path
       d="m 67.603051,44.369079 q -0.165365,0 -0.263206,-0.09646 -0.09646,-0.09784 -0.09646,-0.311436 v -0.905371 h -0.235644 v -0.201193 h 0.235644 v -0.359668 h 0.271473 v 0.359668 h 0.323839 v 0.201193 h -0.323839 v 0.905371 q 0,0.107487 0.04272,0.158474 0.04272,0.05099 0.114377,0.05099 0.04823,0 0.107487,-0.0083 0.05926,-0.0096 0.09233,-0.01654 l 0.03721,0.177766 q -0.05926,0.01792 -0.146072,0.03169 -0.08544,0.01378 -0.159852,0.01378 z"
       style="fill:#ffffff;stroke-width:0.264583"
       id="path216" />
    <path
       d="m 68.564921,44.374591 q -0.232889,0 -0.354156,-0.112999 -0.121267,-0.114377 -0.121267,-0.321083 0,-0.141938 0.07717,-0.246669 0.07855,-0.106108 0.225998,-0.163986 0.14745,-0.05926 0.352777,-0.05926 h 0.265962 v -0.146071 q 0,-0.135048 -0.08268,-0.209462 -0.0813,-0.07441 -0.230132,-0.07441 -0.09371,0 -0.162608,0.02343 -0.0689,0.02205 -0.125402,0.06201 l -0.02894,0.208084 H 68.17218 V 42.99242 q 0.100597,-0.08131 0.234266,-0.122646 0.13367,-0.04272 0.296278,-0.04272 0.271474,0 0.425814,0.129536 0.15434,0.129535 0.15434,0.370692 v 0.717957 q 0,0.02894 0,0.0565 0.0014,0.02756 0.0041,0.05512 l 0.144694,0.01516 v 0.173633 h -0.389985 q -0.0124,-0.06063 -0.01929,-0.108865 -0.0069,-0.04823 -0.0096,-0.09646 -0.07855,0.100596 -0.19706,0.16812 -0.117133,0.06615 -0.250802,0.06615 z m 0.03996,-0.227376 q 0.135047,0 0.246668,-0.06477 0.111621,-0.06477 0.159853,-0.155718 v -0.270096 h -0.275608 q -0.187413,0 -0.281119,0.08957 -0.09371,0.08957 -0.09371,0.199815 0,0.09784 0.06063,0.150206 0.06063,0.05099 0.183279,0.05099 z"
       style="fill:#ffffff;stroke-width:0.264583"
       id="path218" />
    <path
       d="m 70.316406,44.374591 q -0.202571,0 -0.352777,-0.09371 -0.150206,-0.09508 -0.232889,-0.263205 -0.08268,-0.16812 -0.08268,-0.388606 v -0.05788 q 0,-0.212218 0.07993,-0.380338 0.07993,-0.168121 0.230132,-0.265961 0.150207,-0.09784 0.35829,-0.09784 0.180523,0 0.315571,0.05926 0.136425,0.05926 0.228754,0.162608 l 0.0069,0.35829 H 70.655403 L 70.60855,43.14676 q -0.04685,-0.04823 -0.117133,-0.07717 -0.07028,-0.02894 -0.165365,-0.02894 -0.121267,0 -0.213595,0.07166 -0.09095,0.07166 -0.141938,0.191547 -0.05099,0.119889 -0.05099,0.267339 v 0.05788 q 0,0.162608 0.04685,0.282497 0.04823,0.11989 0.136425,0.186035 0.08957,0.06477 0.212218,0.06477 0.137804,0 0.228754,-0.07579 0.09095,-0.07579 0.111621,-0.208084 h 0.243913 l 0.0028,0.0083 q -0.0069,0.128157 -0.07579,0.239778 -0.0689,0.111621 -0.197059,0.180523 -0.12678,0.06752 -0.312815,0.06752 z"
       style="fill:#ffffff;stroke-width:0.264583"
       id="path220" />
    <path
       d="m 71.103265,44.345652 v -0.173633 l 0.22462,-0.03858 v -1.065222 l -0.22462,-0.03859 v -0.175011 h 0.496094 v 1.278818 l 0.22462,0.03858 v 0.173633 z m 0.21084,-1.858972 v -0.290766 h 0.285254 v 0.290766 z"
       style="fill:#ffffff;stroke-width:0.264583"
       id="path222" />
    <path
       d="m 72.685252,44.374591 q -0.206706,0 -0.356912,-0.09646 -0.148828,-0.09784 -0.230132,-0.268717 -0.0813,-0.172255 -0.0813,-0.392741 v -0.03032 q 0,-0.220486 0.0813,-0.391363 0.0813,-0.172255 0.230132,-0.270095 0.150206,-0.09784 0.354156,-0.09784 0.206706,0 0.355534,0.09784 0.150206,0.09784 0.23151,0.268717 0.0813,0.170877 0.0813,0.392741 v 0.03032 q 0,0.221864 -0.0813,0.394119 -0.0813,0.170877 -0.230132,0.267339 -0.148828,0.09646 -0.354156,0.09646 z m 0,-0.212218 q 0.129536,0 0.216352,-0.07028 0.08819,-0.07166 0.132291,-0.194303 0.04548,-0.124023 0.04548,-0.28112 v -0.03032 q 0,-0.157097 -0.04548,-0.279742 -0.0441,-0.124023 -0.132291,-0.194303 -0.08819,-0.07166 -0.219108,-0.07166 -0.129535,0 -0.21773,0.07166 -0.08819,0.07028 -0.132291,0.194303 -0.0441,0.122645 -0.0441,0.279742 v 0.03032 q 0,0.157097 0.0441,0.28112 0.0441,0.122645 0.132291,0.194303 0.08957,0.07028 0.220486,0.07028 z m -0.16812,-1.591633 0.253558,-0.374826 h 0.316949 l 0.0028,0.0083 -0.370692,0.366558 h -0.190169 z"
       style="fill:#ffffff;stroke-width:0.264583"
       id="path224" />
    <path
       d="m 73.560305,44.345652 v -0.173633 l 0.22462,-0.03858 v -1.065222 l -0.22462,-0.03859 v -0.175011 h 0.467154 l 0.01929,0.221864 q 0.07441,-0.118511 0.186035,-0.183279 0.112999,-0.06615 0.256315,-0.06615 0.241156,0 0.373448,0.141938 0.132292,0.14056 0.132292,0.43546 v 0.728981 l 0.22462,0.03858 v 0.173633 H 74.498745 V 44.17201 l 0.22462,-0.03858 v -0.723469 q 0,-0.197059 -0.07855,-0.279742 -0.07717,-0.08268 -0.237022,-0.08268 -0.117133,0 -0.208084,0.0565 -0.08957,0.0565 -0.143316,0.15434 v 0.875053 l 0.22462,0.03858 v 0.173633 z"
       style="fill:#ffffff;stroke-width:0.264583"
       id="path226" />
    <path
       d="m 58.170386,47.89372 v -0.173633 l 0.22462,-0.03858 v -1.580609 l -0.22462,-0.03858 v -0.175011 h 0.22462 0.640788 q 0.314192,0 0.490581,0.136426 0.177767,0.135048 0.177767,0.406521 0,0.13367 -0.08544,0.239779 -0.08406,0.10473 -0.223242,0.155718 0.121268,0.0248 0.208084,0.09784 0.08682,0.07166 0.13367,0.176389 0.04823,0.103353 0.04823,0.227376 0,0.275608 -0.179145,0.42168 -0.179145,0.144694 -0.485069,0.144694 z m 0.496094,-0.212218 h 0.454752 q 0.186035,0 0.28801,-0.09095 0.103353,-0.09233 0.103353,-0.260449 0,-0.118511 -0.03858,-0.202571 -0.03721,-0.08406 -0.115756,-0.129536 -0.07717,-0.04548 -0.195681,-0.04548 H 58.66648 Z m 0,-0.9412 h 0.439594 q 0.146072,0 0.235644,-0.08406 0.09095,-0.08544 0.09095,-0.23151 0,-0.162608 -0.101974,-0.242535 -0.101975,-0.0813 -0.2949,-0.0813 H 58.66648 Z"
       style="fill:#ffffff;stroke-width:0.264583"
       id="path228" />
    <path
       d="m 60.638451,47.922658 q -0.242535,0 -0.37896,-0.155718 -0.136426,-0.155718 -0.136426,-0.485069 v -0.665592 l -0.170877,-0.03858 v -0.175011 h 0.170877 0.271473 v 0.881944 q 0,0.238401 0.07028,0.327973 0.07028,0.08957 0.219108,0.08957 0.144694,0 0.238401,-0.05788 0.09508,-0.05926 0.143315,-0.166743 v -0.861273 l -0.199815,-0.03858 v -0.175011 h 0.199815 0.271474 v 1.278819 l 0.170876,0.03858 v 0.173633 h -0.414789 l -0.01791,-0.220486 q -0.07028,0.119889 -0.181901,0.184657 -0.110243,0.06477 -0.254937,0.06477 z"
       style="fill:#ffffff;stroke-width:0.264583"
       id="path230" />
    <path
       d="m 61.695405,47.89372 v -0.173633 l 0.22462,-0.03858 v -1.065223 l -0.22462,-0.03858 v -0.175011 h 0.467155 l 0.02343,0.19017 0.0028,0.02618 q 0.06339,-0.114377 0.155718,-0.179145 0.09371,-0.06477 0.213596,-0.06477 0.04272,0 0.08682,0.0083 0.04548,0.0069 0.06477,0.01378 l -0.03583,0.252181 -0.188791,-0.01102 q -0.107487,-0.0069 -0.180523,0.04961 -0.07304,0.05512 -0.112999,0.148828 v 0.844737 l 0.22462,0.03858 v 0.173633 z"
       style="fill:#ffffff;stroke-width:0.264583"
       id="path232" />
    <path
       d="m 63.478585,47.922658 q -0.150206,0 -0.281119,-0.03032 -0.130914,-0.03032 -0.278364,-0.09371 l -0.0028,-0.354156 h 0.205328 l 0.05099,0.213596 q 0.07717,0.0317 0.148828,0.04685 0.07304,0.01378 0.157096,0.01378 0.165365,0 0.237023,-0.06339 0.07166,-0.06339 0.07166,-0.157096 0,-0.08819 -0.07304,-0.148828 -0.07166,-0.06201 -0.261827,-0.104731 -0.270096,-0.06201 -0.398253,-0.165364 -0.12678,-0.104731 -0.12678,-0.278364 0,-0.121267 0.07028,-0.216352 0.07028,-0.09646 0.195682,-0.152962 0.125401,-0.0565 0.292143,-0.0565 0.169499,0 0.289388,0.03858 0.121268,0.03858 0.21084,0.103352 l 0.01378,0.340376 h -0.203949 l -0.0441,-0.198438 q -0.04823,-0.03583 -0.114377,-0.05512 -0.06615,-0.01929 -0.151585,-0.01929 -0.126779,0 -0.206705,0.05926 -0.07855,0.05926 -0.07855,0.148828 0,0.05237 0.02205,0.09095 0.02343,0.03859 0.08819,0.07028 0.06477,0.03032 0.190169,0.06063 0.311436,0.07304 0.434082,0.186035 0.124023,0.112999 0.124023,0.278363 0,0.188791 -0.14056,0.316949 -0.139182,0.126779 -0.439594,0.126779 z"
       style="fill:#ffffff;stroke-width:0.264583"
       id="path234" />
    <path
       d="m 64.765672,47.922658 q -0.232888,0 -0.354155,-0.112999 -0.121268,-0.114377 -0.121268,-0.321082 0,-0.141938 0.07717,-0.246669 0.07855,-0.106109 0.225998,-0.163986 0.14745,-0.05926 0.352777,-0.05926 h 0.265961 V 46.87259 q 0,-0.135048 -0.08268,-0.209462 -0.0813,-0.07441 -0.230132,-0.07441 -0.09371,0 -0.162608,0.02343 -0.0689,0.02205 -0.125402,0.06201 l -0.02894,0.208083 h -0.209461 v -0.341753 q 0.100596,-0.0813 0.234266,-0.122645 0.13367,-0.04272 0.296278,-0.04272 0.271473,0 0.425814,0.129535 0.15434,0.129536 0.15434,0.370692 v 0.717957 q 0,0.02894 0,0.0565 0.0014,0.02756 0.0041,0.05512 l 0.144694,0.01516 v 0.173633 h -0.389985 q -0.0124,-0.06063 -0.01929,-0.108865 -0.0069,-0.04823 -0.0096,-0.09646 -0.07855,0.100597 -0.197059,0.168121 -0.117133,0.06614 -0.250803,0.06614 z m 0.03996,-0.227376 q 0.135048,0 0.246669,-0.06477 0.111621,-0.06477 0.159852,-0.155718 v -0.270095 h -0.275607 q -0.187413,0 -0.28112,0.08957 -0.09371,0.08957 -0.09371,0.199816 0,0.09784 0.06063,0.150206 0.06063,0.05099 0.183279,0.05099 z m -0.05512,-1.576474 0.253559,-0.374826 h 0.316948 l 0.0028,0.0083 -0.370692,0.366558 h -0.190169 z"
       style="fill:#ffffff;stroke-width:0.264583"
       id="path236" />
    <path
       d="m 66.369707,47.917146 q -0.165364,0 -0.263205,-0.09646 -0.09646,-0.09784 -0.09646,-0.311437 v -0.90537 h -0.235645 v -0.201194 h 0.235645 v -0.359667 h 0.271473 v 0.359667 h 0.323839 v 0.201194 h -0.323839 v 0.90537 q 0,0.107487 0.04272,0.158474 0.04272,0.05099 0.114377,0.05099 0.04823,0 0.107487,-0.0083 0.05926,-0.0096 0.09233,-0.01654 l 0.03721,0.177767 q -0.05926,0.01791 -0.146072,0.03169 -0.08544,0.01378 -0.159853,0.01378 z"
       style="fill:#ffffff;stroke-width:0.264583"
       id="path238" />
    <path
       d="m 66.839618,47.89372 v -0.173633 l 0.22462,-0.03858 v -1.065223 l -0.22462,-0.03858 v -0.175011 h 0.496094 v 1.278819 l 0.22462,0.03858 v 0.173633 z m 0.21084,-1.858973 v -0.290765 h 0.285254 v 0.290765 z"
       style="fill:#ffffff;stroke-width:0.264583"
       id="path240" />
    <path
       d="m 67.733964,47.89372 v -0.173633 l 0.224621,-0.03858 v -1.723925 l -0.224621,-0.03858 v -0.17501 h 0.496094 v 1.93752 l 0.22462,0.03858 v 0.173633 z"
       style="fill:#ffffff;stroke-width:0.264583"
       id="path242" />
    <rect
       style="fill:#ffffff;stroke-width:0.264583"
       id="rect18265"
       width="0.25459787"
       height="10.484804"
       x="55.449699"
       y="38.374844" />
  </g>
</svg>
